<svg xmlns="http://www.w3.org/2000/svg" xmlns:xlink="http://www.w3.org/1999/xlink" width="220" height="160"
     viewBox="0 0 220 160">
    <defs>
        <clipPath id="clip-path">
            <rect id="Rectangle_3630" data-name="Rectangle 3630" width="220" height="160"
                  transform="translate(1003.012 478)" fill="none" stroke="#707070" stroke-width="1"/>
        </clipPath>
    </defs>
    <g id="Mask_Group_62" data-name="Mask Group 62" transform="translate(-1003.012 -478)" clip-path="url(#clip-path)">
        <g id="Group_15465" data-name="Group 15465" transform="translate(1004.969 476.488)" opacity="0.5">
            <g id="Group_15541" data-name="Group 15541" transform="translate(17.381 5.848)">
                <g id="Group_15540" data-name="Group 15540" transform="translate(0)">
                    <circle id="Ellipse_3236" data-name="Ellipse 3236" cx="2.607" cy="2.607" r="2.607"
                            transform="translate(176.167 84.808)" fill="#7f7f7f"/>
                    <circle id="Ellipse_3237" data-name="Ellipse 3237" cx="3.095" cy="3.095" r="3.095"
                            transform="translate(69.658 128.309)" fill="#b5b5b5"/>
                    <circle id="Ellipse_3238" data-name="Ellipse 3238" cx="0.875" cy="0.875" r="0.875"
                            transform="translate(55.816)" fill="#7f7f7f"/>
                    <circle id="Ellipse_3239" data-name="Ellipse 3239" cx="1.772" cy="1.772" r="1.772"
                            transform="translate(0 72.224)" fill="#b5b5b5"/>
                </g>
            </g>
            <g id="Group_15561" data-name="Group 15561" transform="translate(87.772 1.512)">
                <g id="Group_15548" data-name="Group 15548" transform="translate(0 6.182)">
                    <g id="Group_15542" data-name="Group 15542" transform="translate(2.693)">
                        <rect id="Rectangle_3613" data-name="Rectangle 3613" width="82.256" height="110.44" rx="8.042"
                              transform="matrix(0.994, -0.113, 0.113, 0.994, 0, 9.265)" fill="#fff"/>
                        <path id="Path_31041" data-name="Path 31041"
                              d="M136.043,128.6a6.835,6.835,0,0,1-6.537-6.059l-10.958-96.67a6.84,6.84,0,0,1,6.019-7.558l68.665-7.784a6.84,6.84,0,0,1,7.559,6.019l10.959,96.67a6.839,6.839,0,0,1-6.019,7.558l-68.665,7.784A6.983,6.983,0,0,1,136.043,128.6ZM194.226,11a6.329,6.329,0,0,0-.935.036l-68.665,7.784a6.326,6.326,0,0,0-5.567,6.99l10.959,96.67a6.318,6.318,0,0,0,6.99,5.567l68.665-7.784.03.255-.03-.255a6.326,6.326,0,0,0,5.567-6.991L200.281,16.6A6.328,6.328,0,0,0,194.226,11Z"
                              transform="translate(-118.062 -10.042)" fill="#232323"/>
                    </g>
                    <g id="Group_15547" data-name="Group 15547" transform="translate(0 23.843)">
                        <g id="Group_15543" data-name="Group 15543" transform="translate(0 0)">
                            <rect id="Rectangle_3614" data-name="Rectangle 3614" width="11.984" height="4.28" rx="2.14"
                                  transform="matrix(0.994, -0.113, 0.113, 0.994, 0, 1.35)" fill="#b5b5b5"/>
                        </g>
                        <g id="Group_15544" data-name="Group 15544" transform="translate(2.82 24.879)">
                            <rect id="Rectangle_3615" data-name="Rectangle 3615" width="11.984" height="4.28" rx="2.14"
                                  transform="matrix(0.994, -0.113, 0.113, 0.994, 0, 1.35)" fill="#b5b5b5"/>
                        </g>
                        <g id="Group_15545" data-name="Group 15545" transform="translate(5.64 49.757)">
                            <rect id="Rectangle_3616" data-name="Rectangle 3616" width="11.984" height="4.28" rx="2.14"
                                  transform="matrix(0.994, -0.113, 0.113, 0.994, 0, 1.35)" fill="#b5b5b5"/>
                        </g>
                        <g id="Group_15546" data-name="Group 15546" transform="translate(8.461 74.636)">
                            <rect id="Rectangle_3617" data-name="Rectangle 3617" width="11.984" height="4.28" rx="2.14"
                                  transform="matrix(0.994, -0.113, 0.113, 0.994, 0, 1.35)" fill="#b5b5b5"/>
                        </g>
                    </g>
                </g>
                <g id="Group_15560" data-name="Group 15560" transform="translate(9.135 0)">
                    <g id="Group_15550" data-name="Group 15550" transform="translate(0)">
                        <g id="Group_15549" data-name="Group 15549">
                            <rect id="Rectangle_3618" data-name="Rectangle 3618" width="82.256" height="110.44"
                                  rx="7.83" transform="translate(26.253 0) rotate(13.751)" fill="#fff"/>
                            <path id="Path_31042" data-name="Path 31042"
                                  d="M201.877,127.616a6.9,6.9,0,0,1-1.4-.195l-67.124-16.427a6.832,6.832,0,0,1-5.012-8.261l23.126-94.5a6.833,6.833,0,0,1,8.261-5.013l67.124,16.428a6.839,6.839,0,0,1,5.012,8.26l-23.127,94.5a6.839,6.839,0,0,1-6.859,5.207ZM158.309,3.54a6.324,6.324,0,0,0-6.345,4.816l-23.127,94.5a6.318,6.318,0,0,0,4.635,7.64L200.6,126.922a6.318,6.318,0,0,0,7.64-4.635l23.127-94.5a6.327,6.327,0,0,0-4.635-7.64L159.6,3.72A6.331,6.331,0,0,0,158.309,3.54Z"
                                  transform="translate(-127.026 -1.907)" fill="#232323"/>
                        </g>
                    </g>
                    <g id="Group_15559" data-name="Group 15559" transform="translate(12.203 12.986)">
                        <g id="Group_15551" data-name="Group 15551" transform="translate(18.027 0)">
                            <rect id="Rectangle_3619" data-name="Rectangle 3619" width="12.703" height="12.703"
                                  rx="6.352" transform="translate(3.02 0) rotate(13.751)" fill="#7f7f7f"/>
                        </g>
                        <g id="Group_15552" data-name="Group 15552" transform="translate(36.999 8.1)">
                            <rect id="Rectangle_3620" data-name="Rectangle 3620" width="43.884" height="5.133"
                                  rx="2.566" transform="translate(1.22 0) rotate(13.751)" fill="#b5b5b5"/>
                        </g>
                        <g id="Group_15553" data-name="Group 15553" transform="translate(12.018 24.554)">
                            <rect id="Rectangle_3621" data-name="Rectangle 3621" width="12.703" height="12.703"
                                  rx="6.352" transform="matrix(0.971, 0.238, -0.238, 0.971, 3.02, 0)" fill="#7f7f7f"/>
                        </g>
                        <g id="Group_15554" data-name="Group 15554" transform="translate(30.99 32.653)">
                            <rect id="Rectangle_3622" data-name="Rectangle 3622" width="43.884" height="5.133"
                                  rx="2.566" transform="translate(1.22 0) rotate(13.751)" fill="#b5b5b5"/>
                        </g>
                        <g id="Group_15555" data-name="Group 15555" transform="translate(6.009 49.107)">
                            <rect id="Rectangle_3623" data-name="Rectangle 3623" width="12.703" height="12.703"
                                  rx="6.352" transform="translate(3.02 0) rotate(13.751)" fill="#7f7f7f"/>
                        </g>
                        <g id="Group_15556" data-name="Group 15556" transform="translate(24.981 57.207)">
                            <rect id="Rectangle_3624" data-name="Rectangle 3624" width="43.884" height="5.133"
                                  rx="2.566" transform="translate(1.22 0) rotate(13.751)" fill="#b5b5b5"/>
                        </g>
                        <g id="Group_15557" data-name="Group 15557" transform="translate(0 73.661)">
                            <rect id="Rectangle_3625" data-name="Rectangle 3625" width="12.703" height="12.703"
                                  rx="6.352" transform="translate(3.02 0) rotate(13.751)" fill="#7f7f7f"/>
                        </g>
                        <g id="Group_15558" data-name="Group 15558" transform="translate(18.972 81.761)">
                            <rect id="Rectangle_3626" data-name="Rectangle 3626" width="43.884" height="5.133"
                                  rx="2.566" transform="translate(1.22 0) rotate(13.751)" fill="#b5b5b5"/>
                        </g>
                    </g>
                </g>
            </g>
            <g id="dog" transform="translate(143.934 123.21)">
                <path id="Path_31043" data-name="Path 31043"
                      d="M236.82,193.114V193.1l5.576-7.6.027.041a86.538,86.538,0,0,1,5.13,12c1.3,3.808,2.62,8.708,1.566,10.477a1.26,1.26,0,0,1-1.174.662C243.26,208.681,236.915,193.276,236.82,193.114Z"
                      transform="translate(-202.487 -171.35)" fill="#232323"/>
                <path id="Path_31044" data-name="Path 31044"
                      d="M201.017,193.114V193.1l5.846-7.6.014.041c3.038,5.563,7.628,19.159,5.7,22.412a1.4,1.4,0,0,1-1.269.729C206.62,208.681,201.071,193.276,201.017,193.114Z"
                      transform="translate(-193.119 -171.35)" fill="#232323"/>
                <path id="Path_31045" data-name="Path 31045"
                      d="M191.373,206.394a1.37,1.37,0,0,1-.919-.9c-1.579-4.577,11.341-23.655,11.476-23.844l.014-.013h23.573a9.692,9.692,0,0,1,2.7-3.267,4.776,4.776,0,0,1,2.768-1.04,2.273,2.273,0,0,1,1.89.877,3.484,3.484,0,0,1,.23,3.065c-2.242,7.331-10.8,25.275-16.5,25.275a1.164,1.164,0,0,1-1.04-.526c-1.35-2.066,1.8-9.478,2.079-10.153H203.659c-.257.432-6.427,10.68-11.315,10.68A3.252,3.252,0,0,1,191.373,206.394Z"
                      transform="translate(-190.321 -169.212)" fill="#232323"/>
                <path id="Path_31046" data-name="Path 31046"
                      d="M214.775,173.545l-6.264-.675v-.027a9.465,9.465,0,0,1,1.85-6.049,1.224,1.224,0,0,1,.837-.459h.041c1.89.135,3.253,4.82,3.537,7.183Z"
                      transform="translate(-195.078 -166.336)" fill="#232323"/>
                <path id="Path_31047" data-name="Path 31047"
                      d="M201.173,183.966a8.771,8.771,0,0,1-8.911-6.494,1.86,1.86,0,0,1-.041-.391,1.622,1.622,0,0,1,1.621-1.607h3.807a8.085,8.085,0,0,1,7.277-4.267,10.651,10.651,0,0,1,3.537.608c.216-.243,3.4-3.577,5.36-3.577a1.634,1.634,0,0,1,.459.067c.54.176.824,1.188.743,2.619a15,15,0,0,1-2.62,7.223,12.959,12.959,0,0,1-8.114,5.468,15.216,15.216,0,0,1-3.119.351Z"
                      transform="translate(-190.818 -166.834)" fill="#232323"/>
                <path id="Path_31048" data-name="Path 31048"
                      d="M193.258,180.648l-.018-.018c-.045-.128-.082-.264-.118-.391a1.229,1.229,0,0,1-.027-.264,1.094,1.094,0,0,1,1.094-1.085h.683v.018a1.8,1.8,0,0,1-1.613,1.74Z"
                      transform="translate(-191.046 -169.62)" fill="#fff"/>
                <g id="Group_15562" data-name="Group 15562" transform="translate(9.547 7.466)">
                    <path id="Path_31049" data-name="Path 31049"
                          d="M203.563,178.136a.567.567,0,0,1-.225-.806l.422-.61a.629.629,0,0,1,.873-.165.567.567,0,0,1,.225.806l-.422.609a.644.644,0,0,1-.693.241A.457.457,0,0,1,203.563,178.136Z"
                          transform="translate(-203.251 -176.447)" fill="#fff"/>
                </g>
                <path id="Path_31050" data-name="Path 31050"
                      d="M205.679,204.256a.49.49,0,0,1-.073-.007.717.717,0,0,0-.089-.007.241.241,0,0,1-.014-.279c.669-.941,1.313-1.92,1.915-2.906l.054-.089c.035-.052,1.735-2.868,2.786-4.718a.191.191,0,0,1,.176-.108.226.226,0,0,1,.1.026.181.181,0,0,1,.1.108.224.224,0,0,1-.015.17c-.872,1.533-2.187,3.721-2.619,4.44-.1.169-.16.267-.162.272h0c-.023.03-.058.087-.124.193-.258.416-.944,1.522-1.87,2.823A.218.218,0,0,1,205.679,204.256Z"
                      transform="translate(-194.283 -174.135)" fill="#fff"/>
                <path id="Path_31051" data-name="Path 31051"
                      d="M239.754,200.871a.128.128,0,0,1-.077-.023.211.211,0,0,1-.1-.29c.752-1.367,1.522-2.856,2.349-4.55a.207.207,0,0,1,.185-.115.2.2,0,0,1,.094.023.2.2,0,0,1,.092.278c-.871,1.768-1.647,3.265-2.375,4.574A.2.2,0,0,1,239.754,200.871Z"
                      transform="translate(-203.203 -174.069)" fill="#fff"/>
                <path id="Path_31052" data-name="Path 31052"
                      d="M214.16,172.487a.119.119,0,0,1-.106-.047.231.231,0,0,1-.08-.162.187.187,0,0,1,.056-.142,13.123,13.123,0,0,1,1.246-1.306.2.2,0,0,1,.131-.047.21.21,0,0,1,.157.068.2.2,0,0,1,.047.148.2.2,0,0,1-.068.14,11.153,11.153,0,0,0-1.227,1.285A.231.231,0,0,1,214.16,172.487Z"
                      transform="translate(-196.51 -167.5)" fill="#fff"/>
                <path id="Path_31053" data-name="Path 31053"
                      d="M212.7,172.743a.2.2,0,0,1-.066-.007,10.21,10.21,0,0,0-3.482-.609c-.142,0-.368,0-.508.007h-.006a.2.2,0,0,1-.156-.056.193.193,0,0,1-.055-.137.2.2,0,0,1,.052-.156.193.193,0,0,1,.141-.064c.14-.005.364-.006.5-.006a10.955,10.955,0,0,1,3.651.625.226.226,0,0,1,.12.12.194.194,0,0,1,.005.148A.213.213,0,0,1,212.7,172.743Z"
                      transform="translate(-195.059 -167.743)" fill="#fff"/>
                <path id="Path_31054" data-name="Path 31054"
                      d="M217.984,174.52a.443.443,0,0,1-.116-.024.189.189,0,0,1-.088-.114.219.219,0,0,1,.018-.162l1.213-2.158a.191.191,0,0,1,.175-.107.227.227,0,0,1,.1.026.18.18,0,0,1,.094.107.228.228,0,0,1-.015.171l-1.214,2.157A.2.2,0,0,1,217.984,174.52Z"
                      transform="translate(-197.503 -167.806)" fill="#fff"/>
            </g>
            <g id="Group_15613" data-name="Group 15613" transform="translate(13.031 10.36)">
                <g id="Group_15563" data-name="Group 15563" transform="translate(11.62 35.417)">
                    <path id="Path_31055" data-name="Path 31055"
                          d="M31.306,61.8,29.1,72.616a3.276,3.276,0,0,0,1.672,2.425c4.742,2.544,7.668-5.6,7.668-5.6l1.192-4.579Z"
                          transform="translate(-28.856 -61.551)" fill="#fff"/>
                    <path id="Path_31056" data-name="Path 31056"
                          d="M30.571,75.172a3.4,3.4,0,0,1-1.8-2.646.206.206,0,0,1,.005-.047l2.2-10.818a.248.248,0,0,1,.328-.182l8.328,3.063a.247.247,0,0,1,.154.294l-1.142,4.386S37.841,78.7,30.571,75.172Zm7.673-5.6a.248.248,0,0,1-.128-.283l1.136-4.362L31.4,62.041l-2.14,10.513A3.049,3.049,0,0,0,30.8,74.736C37.089,78,38.244,69.573,38.244,69.573Z"
                          transform="translate(-28.769 -61.463)" fill="#232323"/>
                </g>
                <g id="Group_15571" data-name="Group 15571" transform="translate(24.738 53.795)">
                    <g id="Group_15566" data-name="Group 15566" transform="translate(9.216)">
                        <path id="Path_31057" data-name="Path 31057"
                              d="M61.586,105.152c3.531,5.428,16.489,20.392,16.489,20.392l-7.025,7.4,4.2,7.184s8.169-4.579,13.324-8.03c2.4-1.6,4.14-2.964,4.11-3.506a37.655,37.655,0,0,0-1.98-5.31c-3.214-7.744-9.43-21.638-11.583-26.923-2.945-7.223-6.586-11.769-13.77-9.353C57.192,89.75,58.055,99.723,61.586,105.152Z"
                              transform="translate(-59.016 -86.354)" fill="#7f7f7f"/>
                        <path id="Path_31058" data-name="Path 31058"
                              d="M96.078,141.719a4.781,4.781,0,0,0,2.186,3.466c2.4-1.6,4.14-2.964,4.11-3.506a37.653,37.653,0,0,0-1.98-5.31l-.137.016A4.791,4.791,0,0,0,96.078,141.719Z"
                              transform="translate(-68.704 -99.44)" fill="#fff"/>
                        <g id="Group_15564" data-name="Group 15564" transform="translate(5.829 18.557)">
                            <path id="Path_31059" data-name="Path 31059"
                                  d="M75.319,140.649a.247.247,0,0,0,.134-.06l9.022-7.987a.248.248,0,0,0,.027-.343L67.348,111.576a.247.247,0,0,0-.38.315l17,20.5-8.843,7.829a.247.247,0,0,0,.193.43Z"
                                  transform="translate(-66.911 -111.487)" fill="#232323"/>
                        </g>
                        <g id="Group_15565" data-name="Group 15565" transform="translate(3.295 7.896)">
                            <path id="Path_31060" data-name="Path 31060"
                                  d="M66.29,108.2a.247.247,0,0,0,.148-.075l1.116-1.159a3.386,3.386,0,0,0,.865-3.1l-1.493-6.626a.247.247,0,0,0-.482.109l1.494,6.626a2.9,2.9,0,0,1-.74,2.65l-.806.837L63.965,97.6a.247.247,0,0,0-.48.117l2.535,10.3a.247.247,0,0,0,.176.18A.252.252,0,0,0,66.29,108.2Z"
                                  transform="translate(-63.478 -97.048)" fill="#232323"/>
                        </g>
                    </g>
                    <g id="Group_15570" data-name="Group 15570" transform="translate(0 50.459)">
                        <g id="Group_15567" data-name="Group 15567" transform="translate(11.207)">
                            <path id="Path_31061" data-name="Path 31061"
                                  d="M73.793,159.348,64,165.369l-1.952-3.4,8.35-6.938Z"
                                  transform="translate(-61.8 -154.782)" fill="#fff"/>
                            <path id="Path_31062" data-name="Path 31062"
                                  d="M63.85,165.521a.246.246,0,0,1-.153-.117L61.745,162a.246.246,0,0,1,.057-.312l8.349-6.938a.249.249,0,0,1,.184-.055.246.246,0,0,1,.168.093l3.4,4.319a.246.246,0,0,1,.049.2.249.249,0,0,1-.114.168l-9.794,6.021a.247.247,0,0,1-.19.029Zm6.422-10.228-7.995,6.643,1.722,3,9.34-5.743Z"
                                  transform="translate(-61.713 -154.694)" fill="#232323"/>
                        </g>
                        <g id="Group_15569" data-name="Group 15569" transform="translate(0 4.269)">
                            <path id="Path_31063" data-name="Path 31063"
                                  d="M58.48,181.391l-1.372.834L46.869,165.376s.647-.394,1.7-.958c2.517-1.348,7.359-3.678,11.219-3.942l3.78,6.221a17.836,17.836,0,0,0-3.484,11.646,3.362,3.362,0,0,1-1.319,2.854C58.674,181.266,58.579,181.332,58.48,181.391Z"
                                  transform="translate(-46.622 -160.476)" fill="#7f7f7f"/>
                            <g id="Group_15568" data-name="Group 15568" transform="translate(0 3.695)">
                                <path id="Path_31064" data-name="Path 31064"
                                      d="M58.48,182.788l-1.372.834L46.869,166.773s.647-.394,1.7-.958l10.2,16.779C58.674,182.663,58.579,182.728,58.48,182.788Z"
                                      transform="translate(-46.622 -165.568)" fill="#fff"/>
                                <path id="Path_31065" data-name="Path 31065"
                                      d="M56.81,183.663,46.57,166.814a.247.247,0,0,1-.029-.187.245.245,0,0,1,.111-.153c.007,0,.665-.4,1.711-.964a.248.248,0,0,1,.328.089l10.2,16.779a.247.247,0,0,1-.062.326,3.66,3.66,0,0,1-.3.208h0l-1.372.834a.236.236,0,0,1-.1.034A.245.245,0,0,1,56.81,183.663Zm1.455-1.173.082-.052-9.955-16.382c-.585.318-1.026.572-1.269.714L57.1,183.2l1.161-.705Z"
                                      transform="translate(-46.534 -165.48)" fill="#232323"/>
                            </g>
                        </g>
                    </g>
                    <path id="Path_31066" data-name="Path 31066"
                          d="M68.128,153.388l5.389,7.371a.862.862,0,0,0,1.155.221l4.818-3.031a.862.862,0,0,0,.236-1.24l-5.916-8.057a.862.862,0,0,0-1.259-.142l-4.291,3.717A.863.863,0,0,0,68.128,153.388Z"
                          transform="translate(-52.141 -102.562)" fill="#b5b5b5"/>
                </g>
                <g id="Group_15580" data-name="Group 15580" transform="translate(18.326 51.152)">
                    <g id="Group_15575" data-name="Group 15575" transform="translate(9.879 75.31)">
                        <g id="Group_15572" data-name="Group 15572" transform="translate(6.045)">
                            <path id="Path_31067" data-name="Path 31067"
                                  d="M65.687,185.485l-2.1,11.3-3.833-.835.454-10.847Z"
                                  transform="translate(-59.504 -184.859)" fill="#fff"/>
                            <path id="Path_31068" data-name="Path 31068"
                                  d="M63.445,196.941l-3.834-.834a.246.246,0,0,1-.194-.252l.454-10.846a.246.246,0,0,1,.264-.236l5.482.378a.243.243,0,0,1,.178.1.246.246,0,0,1,.048.2l-2.1,11.3a.246.246,0,0,1-.106.16.256.256,0,0,1-.106.04A.26.26,0,0,1,63.445,196.941Zm-3.091-11.658-.434,10.385,3.381.736,2-10.779Z"
                                  transform="translate(-59.417 -184.772)" fill="#232323"/>
                        </g>
                        <g id="Group_15574" data-name="Group 15574" transform="translate(0 7.869)">
                            <path id="Path_31069" data-name="Path 31069"
                                  d="M71.232,210.426,70.93,212,51.564,208.3s.143-.743.43-1.9c.688-2.772,2.207-7.926,4.6-10.966l7.149,1.368a17.834,17.834,0,0,0,6.3,10.395,3.362,3.362,0,0,1,1.234,2.893C71.268,210.2,71.253,210.313,71.232,210.426Z"
                                  transform="translate(-51.317 -195.429)" fill="#7f7f7f"/>
                            <g id="Group_15573" data-name="Group 15573" transform="translate(0 10.719)">
                                <path id="Path_31070" data-name="Path 31070"
                                      d="M71.232,214.312l-.3,1.577-19.366-3.706s.143-.743.43-1.9l19.285,3.69C71.268,214.084,71.253,214.2,71.232,214.312Z"
                                      transform="translate(-51.317 -210.034)" fill="#fff"/>
                                <path id="Path_31071" data-name="Path 31071"
                                      d="M70.8,216.043l-19.366-3.705a.248.248,0,0,1-.158-.1.246.246,0,0,1-.038-.185c0-.007.147-.763.432-1.915a.247.247,0,0,1,.286-.183l19.285,3.69a.248.248,0,0,1,.2.264c-.011.126-.028.25-.05.366h0l-.3,1.577a.244.244,0,0,1-.1.158.252.252,0,0,1-.109.041A.239.239,0,0,1,70.8,216.043Zm.106-1.866c.006-.031.011-.063.016-.1l-18.828-3.6c-.157.646-.264,1.144-.322,1.42l18.878,3.612.255-1.334Z"
                                      transform="translate(-51.23 -209.946)" fill="#232323"/>
                            </g>
                        </g>
                    </g>
                    <g id="Group_15579" data-name="Group 15579">
                        <path id="Path_31072" data-name="Path 31072"
                              d="M38.558,100.462c2.441,9.831,14.755,32.954,14.755,32.954l-.251,22.312,8.363.853,2.806-17.228.586-3.6s-.14-1.369-.413-3.633c-.67-5.591-2.143-16.637-4.281-26.025-3-13.19-3.969-21.234-10.894-22.983C40.064,80.8,36.117,90.63,38.558,100.462Z"
                              transform="translate(-37.85 -82.774)" fill="#7f7f7f"/>
                        <g id="Group_15576" data-name="Group 15576" transform="translate(18.743 9.324)">
                            <path id="Path_31073" data-name="Path 31073"
                                  d="M67.157,111.294l.023,0a.247.247,0,0,0,.189-.293c-.12-.56-.244-1.115-.365-1.647-.33-1.448-.633-2.824-.926-4.156-.82-3.719-1.527-6.931-2.361-9.617a.247.247,0,0,0-.472.146c.828,2.667,1.533,5.869,2.349,9.577.294,1.333.6,2.71.927,4.16.12.53.243,1.082.363,1.641A.247.247,0,0,0,67.157,111.294Z"
                                  transform="translate(-63.235 -95.403)" fill="#232323"/>
                        </g>
                        <g id="Group_15577" data-name="Group 15577" transform="translate(5.157 7.365)">
                            <path id="Path_31074" data-name="Path 31074"
                                  d="M45.939,103.892a.241.241,0,0,0,.146-.072l.573-.585a3.728,3.728,0,0,0,.87-3.828l-2.211-6.49a.247.247,0,0,0-.468.159l2.211,6.49a3.234,3.234,0,0,1-.755,3.324l-.573.584a.247.247,0,0,0,.207.418Z"
                                  transform="translate(-44.835 -92.75)" fill="#232323"/>
                        </g>
                        <g id="Group_15578" data-name="Group 15578" transform="translate(2.771 9.525)">
                            <path id="Path_31075" data-name="Path 31075"
                                  d="M56.558,156.709a.246.246,0,0,0,.216-.238l.549-19.855a.235.235,0,0,0-.016-.093L42.081,95.835a.247.247,0,0,0-.463.174l15.21,40.642-.547,19.806a.247.247,0,0,0,.24.254A.2.2,0,0,0,56.558,156.709Z"
                                  transform="translate(-41.603 -95.675)" fill="#232323"/>
                        </g>
                        <path id="Path_31076" data-name="Path 31076"
                              d="M69.089,157.57a3.092,3.092,0,0,0,2.415-1.188l.586-3.6s-.14-1.369-.413-3.633a3.088,3.088,0,0,0-2.339-1.3c-1.966-.049-3.616,2.083-3.685,4.765S67.123,157.52,69.089,157.57Z"
                              transform="translate(-45.124 -99.803)" fill="#fff"/>
                        <path id="Path_31077" data-name="Path 31077"
                              d="M56.746,186.429l9.081.947a.861.861,0,0,0,.938-.708l.983-5.607a.862.862,0,0,0-.761-1.006l-9.944-1.015a.862.862,0,0,0-.95.839l-.12,5.676A.862.862,0,0,0,56.746,186.429Z"
                              transform="translate(-42.592 -107.96)" fill="#b5b5b5"/>
                    </g>
                </g>
                <g id="Group_15584" data-name="Group 15584" transform="translate(39.424 13.823)">
                    <g id="Group_15581" data-name="Group 15581" transform="translate(8.322)">
                        <path id="Path_31078" data-name="Path 31078"
                              d="M78.031,52.73S86,60.195,90.765,57.891c4.65-2.247,1.671-11.158-1.227-19.981a2.611,2.611,0,0,0,1.31-1.757c.061-1.539-2.374-3.171-4.092-3.564-1.961-.45-2.851,3.028-1.23,5.153a2.213,2.213,0,0,0,.53.505L86.6,48.513l-2.9-2.539Z"
                              transform="translate(-77.784 -32.304)" fill="#fff"/>
                        <path id="Path_31079" data-name="Path 31079"
                              d="M77.774,52.823a.247.247,0,0,1-.021-.339l5.67-6.756a.246.246,0,0,1,.351-.027l2.462,2.155-.509-9.562a2.532,2.532,0,0,1-.486-.487,4.363,4.363,0,0,1-.369-4.717,1.688,1.688,0,0,1,1.851-.826c1.792.41,4.351,2.1,4.283,3.815a2.7,2.7,0,0,1-1.264,1.844l.027.08a79.627,79.627,0,0,1,3.385,12.347c.581,4.116-.194,6.627-2.369,7.677a4.666,4.666,0,0,1-1.485.428C84.48,59.04,78.073,53.1,77.774,52.823Zm7.513-19.467a3.9,3.9,0,0,0,.346,4.151,1.974,1.974,0,0,0,.471.449.247.247,0,0,1,.109.192l.546,10.266a.247.247,0,0,1-.41.2L83.64,46.239,78.285,52.62c1.18,1.054,8.1,6.983,12.284,4.962,4.411-2.132,1.523-10.924-1.27-19.426l-.084-.255a.247.247,0,0,1,.1-.283,2.4,2.4,0,0,0,1.2-1.56c.055-1.392-2.292-2.945-3.9-3.314a1.214,1.214,0,0,0-.419-.026A1.3,1.3,0,0,0,85.288,33.355Z"
                              transform="translate(-77.696 -32.217)" fill="#232323"/>
                    </g>
                    <g id="Group_15583" data-name="Group 15583" transform="translate(0 3.013)">
                        <path id="Path_31080" data-name="Path 31080"
                              d="M69.624,36.3c2.7.153,14.309,12.361,14.309,12.361a14.133,14.133,0,0,1-7.971,7.742s-5.944-6.489-8.353-11.876S66.765,36.142,69.624,36.3Z"
                              transform="translate(-66.425 -36.297)" fill="#b5b5b5"/>
                        <g id="Group_15582" data-name="Group 15582" transform="translate(9.493 11.895)">
                            <path id="Path_31081" data-name="Path 31081"
                                  d="M79.558,58.811a.244.244,0,0,0,.089-.029c3.111-1.716,6.04-5.812,6.163-5.986a.247.247,0,0,0-.4-.286c-.03.042-2.987,4.178-6,5.839a.247.247,0,0,0,.149.461Z"
                                  transform="translate(-79.281 -52.407)" fill="#232323"/>
                        </g>
                    </g>
                </g>
                <g id="Group_15589" data-name="Group 15589" transform="translate(14.608 11.837)">
                    <path id="Path_31082" data-name="Path 31082"
                          d="M60.073,36.308l-6.312,1.565L39.524,36.18,36.2,62.364l-3.388,17.18S47.57,85.508,55.4,84.215s15.91-7.066,15.91-7.066S65.527,63.364,64.285,56.9c0,0,2.267-5.751,2.628-8.418S60.073,36.308,60.073,36.308Z"
                          transform="translate(-32.815 -31.268)" fill="#b5b5b5"/>
                    <g id="Group_15585" data-name="Group 15585" transform="translate(27.605 5.594)">
                        <path id="Path_31083" data-name="Path 31083"
                              d="M75.551,53.366a.249.249,0,0,0,.205-.168,27.416,27.416,0,0,0,1.184-4.443c.3-2.245-4.3-8.826-6.292-11.551a.247.247,0,0,0-.4.292c1.528,2.088,6.488,9.066,6.2,11.193a26.974,26.974,0,0,1-1.164,4.353.246.246,0,0,0,.157.312A.254.254,0,0,0,75.551,53.366Z"
                              transform="translate(-70.202 -37.103)" fill="#232323"/>
                    </g>
                    <g id="Group_15586" data-name="Group 15586" transform="translate(16.339 4.181)">
                        <path id="Path_31084" data-name="Path 31084"
                              d="M59.821,35.607c3.216.545,5.593,4.757,2.078,7.022a9.769,9.769,0,0,0-1.2-2.648,7.419,7.419,0,0,1-.986,2.914s-3.522-1.257-4.3-3.842S57.318,35.184,59.821,35.607Z"
                              transform="translate(-55.031 -35.278)" fill="#fff"/>
                        <path id="Path_31085" data-name="Path 31085"
                              d="M59.539,43.039c-.148-.053-3.649-1.329-4.449-4a2.615,2.615,0,0,1,.486-2.619,4.643,4.643,0,0,1,4.2-1.141h0a4.946,4.946,0,0,1,3.952,3.686,3.557,3.557,0,0,1-1.781,3.787.247.247,0,0,1-.371-.138,12.044,12.044,0,0,0-.823-2.051,6.915,6.915,0,0,1-.923,2.385.242.242,0,0,1-.175.108A.248.248,0,0,1,59.539,43.039Zm1.261-3.3a8.746,8.746,0,0,1,1.146,2.409,2.972,2.972,0,0,0,1.3-3.086,4.5,4.5,0,0,0-3.551-3.3h0a4.206,4.206,0,0,0-3.745.981,2.159,2.159,0,0,0-.382,2.15c.629,2.105,3.242,3.313,3.959,3.609a7.439,7.439,0,0,0,.84-2.636.245.245,0,0,1,.216-.219A.245.245,0,0,1,60.8,39.737Z"
                              transform="translate(-54.943 -35.19)" fill="#232323"/>
                    </g>
                    <g id="Group_15587" data-name="Group 15587" transform="translate(17.685)">
                        <path id="Path_31086" data-name="Path 31086"
                              d="M62.069,30.648l.018,5.877s-1.015,1.572-2.406,1.5-2.579-1.7-2.579-1.7l.65-6.464Z"
                              transform="translate(-56.855 -29.615)" fill="#fff"/>
                        <path id="Path_31087" data-name="Path 31087"
                              d="M59.581,38.184a4.472,4.472,0,0,1-2.766-1.8.245.245,0,0,1-.047-.17l.65-6.464a.246.246,0,0,1,.289-.219l4.317.786a.248.248,0,0,1,.2.243l.017,5.877a.244.244,0,0,1-.039.135,3.691,3.691,0,0,1-2.267,1.6A2.064,2.064,0,0,1,59.581,38.184Zm2.154-7.417-3.851-.7-.614,6.1a3.885,3.885,0,0,0,2.337,1.525,2.9,2.9,0,0,0,2.145-1.329Z"
                              transform="translate(-56.767 -29.528)" fill="#232323"/>
                    </g>
                    <g id="Group_15588" data-name="Group 15588" transform="translate(2.113 45.207)">
                        <path id="Path_31088" data-name="Path 31088"
                              d="M56.13,96.508l.124-.016c5.61-.778,12.892-5.236,12.965-5.281a.247.247,0,0,0-.259-.42c-.072.044-7.268,4.448-12.774,5.212l-.116.015C50.484,96.7,36.149,91.746,36,91.7a.247.247,0,1,0-.162.467C36.44,92.369,50.431,97.2,56.13,96.508Z"
                              transform="translate(-35.676 -90.754)" fill="#232323"/>
                    </g>
                </g>
                <path id="Path_31089" data-name="Path 31089"
                      d="M42.45,14.466c1.5,1.758-2.136,4.884-3.472,5.779s-2.272,4.96-5.317,4.89-1.048,7.1-9.739,8.854c-6.7,1.35-13.3-5.764-10.025-9.307S24.758,22.676,27.715,19.4c1.881-2.087,2.684-6.105,7.339-5.28C38.529,14.735,41.269,13.078,42.45,14.466Z"
                      transform="translate(-13.031 -13.6)" fill="#232323"/>
                <g id="Group_15598" data-name="Group 15598" transform="translate(27.254)">
                    <g id="Group_15597" data-name="Group 15597">
                        <g id="Group_15590" data-name="Group 15590" transform="translate(0 0.86)">
                            <path id="Path_31090" data-name="Path 31090"
                                  d="M52.5,15.24l-.821-.219a.746.746,0,0,0-.732.2,2.511,2.511,0,0,0-.605.954,1.741,1.741,0,0,0,.111,1.176.74.74,0,0,0,.412.394l.9.357a.75.75,0,0,0,1.013-.564L53.04,16.1A.75.75,0,0,0,52.5,15.24Z"
                                  transform="translate(-50.03 -14.748)" fill="#fff"/>
                            <path id="Path_31091" data-name="Path 31091"
                                  d="M51.587,18.246l-.905-.357a.98.98,0,0,1-.548-.527,1.973,1.973,0,0,1-.12-1.346,2.774,2.774,0,0,1,.663-1.053,1,1,0,0,1,.973-.268l.822.219h0a1,1,0,0,1,.724,1.141L52.934,17.5a1,1,0,0,1-.5.693,1.008,1.008,0,0,1-.365.119A.989.989,0,0,1,51.587,18.246Zm-.065-3.074a.5.5,0,0,0-.49.134,2.282,2.282,0,0,0-.546.856,1.49,1.49,0,0,0,.1,1.006.491.491,0,0,0,.275.262l.9.357a.5.5,0,0,0,.679-.378l.262-1.441a.507.507,0,0,0-.365-.576Z"
                                  transform="translate(-49.943 -14.661)" fill="#232323"/>
                        </g>
                        <g id="Group_15594" data-name="Group 15594" transform="translate(3.562 1.737)">
                            <g id="Group_15591" data-name="Group 15591" transform="translate(0 0.244)">
                                <path id="Path_31092" data-name="Path 31092"
                                      d="M65.376,22.831c.354,2.763-.281,6.142-3.6,6.663-2.444.382-5.673-2.05-6.558-5.706s-.824-6.936,3.661-7.533a10.956,10.956,0,0,1,1.447-.074c2.682.1,3.709.144,4.834,5.18C65.255,21.807,65.311,22.31,65.376,22.831Z"
                                      transform="translate(-54.767 -16.178)" fill="#fff"/>
                            </g>
                            <g id="Group_15593" data-name="Group 15593" transform="translate(3.692)">
                                <g id="Group_15592" data-name="Group 15592">
                                    <path id="Path_31093" data-name="Path 31093"
                                          d="M63.015,29.666l.1-.015c3.4-.532,4.2-3.932,3.811-6.938l-.025-.2c-.057-.459-.11-.893-.2-1.293-1.17-5.235-2.31-5.276-5.067-5.373a.247.247,0,0,0-.018.494c2.63.093,3.516.124,4.6,4.987.084.376.136.8.191,1.246l.025.2c.173,1.347.437,5.787-3.4,6.387a4.98,4.98,0,0,1-2.915-.74.247.247,0,1,0-.224.441A5.507,5.507,0,0,0,63.015,29.666Z"
                                          transform="translate(-59.768 -15.848)" fill="#232323"/>
                                </g>
                            </g>
                        </g>
                        <path id="Path_31094" data-name="Path 31094"
                              d="M55.743,23.357a2.743,2.743,0,0,0,1.221-2.524c-.022-.334-.087-.777-.08-1.192,2.338,1.576,6.2,2,7.86,2.112A1.249,1.249,0,0,0,66,21c1.237-3.1-2.071-7.791-5.551-6.926-4.576-1.884-8.783,1.133-8.711,4.635C51.817,22.592,54.724,24.069,55.743,23.357Z"
                              transform="translate(-50.412 -13.495)" fill="#232323"/>
                        <g id="Group_15596" data-name="Group 15596" transform="translate(0.291 8.405)">
                            <path id="Path_31095" data-name="Path 31095"
                                  d="M55.3,26.1s-2.136-1.522-3.913-.571-.255,5.251,4.305,3.839Z"
                                  transform="translate(-50.423 -24.967)" fill="#fff"/>
                            <g id="Group_15595" data-name="Group 15595">
                                <path id="Path_31096" data-name="Path 31096"
                                      d="M54.537,29.765a6.472,6.472,0,0,0,1.147-.25.247.247,0,1,0-.146-.472c-2.571.8-4.049-.278-4.535-1.44a1.485,1.485,0,0,1,.419-1.945c1.623-.868,3.633.54,3.653.555a.247.247,0,0,0,.287-.4c-.092-.066-2.282-1.6-4.173-.588a1.96,1.96,0,0,0-.642,2.571A3.6,3.6,0,0,0,54.537,29.765Z"
                                      transform="translate(-50.336 -24.879)" fill="#232323"/>
                            </g>
                        </g>
                    </g>
                </g>
                <g id="Group_15604" data-name="Group 15604" transform="translate(11.29 16.743)">
                    <g id="Group_15603" data-name="Group 15603">
                        <path id="Path_31097" data-name="Path 31097"
                              d="M39.746,57.521S35.5,59.713,28.322,56.474c0,0,3.4-20.706,10.027-20.3,5.842.362,3.757,9.3,3.041,12.062S39.746,57.521,39.746,57.521Z"
                              transform="translate(-28.322 -36.172)" fill="#b5b5b5"/>
                        <g id="Group_15599" data-name="Group 15599" transform="translate(11.177 0.592)">
                            <path id="Path_31098" data-name="Path 31098"
                                  d="M43.736,57.977a.247.247,0,0,0,.215-.21c.01-.065.935-6.536,1.639-9.255,1.514-5.841,1.232-9.812-.814-11.484a.247.247,0,0,0-.312.383c1.886,1.54,2.109,5.335.649,10.976-.712,2.745-1.641,9.243-1.65,9.308a.247.247,0,0,0,.21.28A.268.268,0,0,0,43.736,57.977Z"
                                  transform="translate(-43.46 -36.973)" fill="#232323"/>
                        </g>
                        <g id="Group_15602" data-name="Group 15602" transform="translate(1.287 18.952)">
                            <g id="Group_15601" data-name="Group 15601">
                                <g id="Group_15600" data-name="Group 15600">
                                    <path id="Path_31099" data-name="Path 31099"
                                          d="M37.477,63.54a7.7,7.7,0,0,0,1.057-.192.247.247,0,1,0-.132-.476,12.605,12.605,0,0,1-7.985-1.009.247.247,0,1,0-.21.447A13.459,13.459,0,0,0,37.477,63.54Z"
                                          transform="translate(-30.066 -61.84)" fill="#232323"/>
                                </g>
                            </g>
                        </g>
                    </g>
                </g>
                <g id="Group_15612" data-name="Group 15612" transform="translate(42.372 4.044)">
                    <g id="Group_15608" data-name="Group 15608">
                        <g id="Group_15605" data-name="Group 15605" transform="translate(9.42 8.141)">
                            <rect id="Rectangle_3627" data-name="Rectangle 3627" width="2.184" height="11.896"
                                  rx="1.092" transform="translate(10.942 6.928) rotate(125.62)" fill="#fff"/>
                            <path id="Path_31100" data-name="Path 31100"
                                  d="M91.879,38.331l-7.894-5.657A1.339,1.339,0,1,1,85.544,30.5l7.9,5.657a1.339,1.339,0,0,1-.562,2.409l-.058.008A1.327,1.327,0,0,1,91.879,38.331Zm-7.253-7.578a.845.845,0,0,0-.354,1.52l7.894,5.657a.845.845,0,0,0,.984-1.373l-7.9-5.657a.837.837,0,0,0-.593-.152Z"
                                  transform="translate(-83.241 -30.063)" fill="#232323"/>
                        </g>
                        <g id="Group_15606" data-name="Group 15606">
                            <circle id="Ellipse_3240" data-name="Ellipse 3240" cx="6.173" cy="6.173" r="6.173"
                                    transform="translate(0.245 0.249)" fill="#fff"/>
                            <path id="Path_31101" data-name="Path 31101"
                                  d="M73.1,30.612h0a6.421,6.421,0,1,1,4.785,1.115c-.093.016-.186.029-.279.041A6.375,6.375,0,0,1,73.1,30.612Zm2.773-11.065a5.926,5.926,0,0,0-2.485,10.663l-.144.2.144-.2a5.926,5.926,0,1,0,2.742-10.7C76.04,19.521,75.955,19.533,75.869,19.547Z"
                                  transform="translate(-70.417 -18.972)" fill="#232323"/>
                        </g>
                        <g id="Group_15607" data-name="Group 15607" transform="translate(1.69 1.692)">
                            <circle id="Ellipse_3241" data-name="Ellipse 3241" cx="4.482" cy="4.482" r="4.482"
                                    transform="translate(0.245 0.248)" fill="#fff"/>
                            <path id="Path_31102" data-name="Path 31102"
                                  d="M74.68,29.837h0A4.734,4.734,0,1,1,78,30.685,4.734,4.734,0,0,1,74.68,29.837Zm2.064-8.021a4.216,4.216,0,1,0,.184-.027Q76.835,21.8,76.743,21.816Zm-1.921,7.821h0Z"
                                  transform="translate(-72.707 -21.264)" fill="#232323"/>
                        </g>
                    </g>
                    <g id="Group_15609" data-name="Group 15609" transform="translate(14.236 9.443)">
                        <path id="Path_31103" data-name="Path 31103"
                              d="M92.183,32.323c1.443.745,3.554,2.891,2.391,4.243s-3.965-.7-4.443-2.488S91.035,31.731,92.183,32.323Z"
                              transform="translate(-89.786 -31.85)" fill="#fff"/>
                        <path id="Path_31104" data-name="Path 31104"
                              d="M92.988,37.1A4.843,4.843,0,0,1,89.8,34.056a1.749,1.749,0,0,1,.426-1.972,1.83,1.83,0,0,1,1.978-.067h0a5.7,5.7,0,0,1,2.824,3.192,1.64,1.64,0,0,1-.36,1.432,1.465,1.465,0,0,1-.96.512A2.111,2.111,0,0,1,92.988,37.1ZM90.54,32.469a1.347,1.347,0,0,0-.258,1.46A4.349,4.349,0,0,0,93.1,36.623a1.111,1.111,0,0,0,1.45-1.319,5.192,5.192,0,0,0-2.567-2.848h0a1.64,1.64,0,0,0-.933-.191A1,1,0,0,0,90.54,32.469Zm1.554-.233h0Z"
                              transform="translate(-89.698 -31.762)" fill="#232323"/>
                    </g>
                    <g id="Group_15610" data-name="Group 15610" transform="translate(12.857 8.513)">
                        <path id="Path_31105" data-name="Path 31105"
                              d="M89.571,30.854c1.155.183,1.425,4.127-.408,3.633C87.8,34.121,87.731,30.561,89.571,30.854Z"
                              transform="translate(-87.917 -30.59)" fill="#fff"/>
                        <path id="Path_31106" data-name="Path 31106"
                              d="M89.012,34.638c-.928-.25-1.356-1.686-1.117-2.8a1.429,1.429,0,0,1,1.627-1.313h0c.4.063.726.425.93,1.021a3.089,3.089,0,0,1-.287,2.8,1.051,1.051,0,0,1-.648.335A1.321,1.321,0,0,1,89.012,34.638Zm.433-3.628c-.73-.117-.982.532-1.066.928-.185.865.114,2.048.762,2.223a.617.617,0,0,0,.664-.152,2.658,2.658,0,0,0,.181-2.306c-.138-.4-.34-.662-.54-.693Z"
                              transform="translate(-87.83 -30.502)" fill="#232323"/>
                    </g>
                    <g id="Group_15611" data-name="Group 15611" transform="translate(11.862 11.493)">
                        <path id="Path_31107" data-name="Path 31107"
                              d="M87,35.222c.618-.992,4.356.29,3.19,1.788C89.32,38.119,86.011,36.8,87,35.222Z"
                              transform="translate(-86.57 -34.625)" fill="#fff"/>
                        <path id="Path_31108" data-name="Path 31108"
                              d="M87.277,37.014A1.428,1.428,0,0,1,86.7,35h0a1.341,1.341,0,0,1,1.3-.46A3.088,3.088,0,0,1,90.473,35.9a1.093,1.093,0,0,1-.179,1.176,1.4,1.4,0,0,1-.964.486A3.138,3.138,0,0,1,87.277,37.014Zm-.158-1.748h0a.971.971,0,0,0,.441,1.344c.724.506,1.932.69,2.344.161a.617.617,0,0,0,.118-.67,2.659,2.659,0,0,0-2.055-1.062,1.993,1.993,0,0,0-.374.007A.631.631,0,0,0,87.119,35.265Z"
                              transform="translate(-86.483 -34.538)" fill="#232323"/>
                    </g>
                </g>
            </g>
        </g>
    </g>
</svg>
