<?xml version="1.0" encoding="utf-8"?>
<!-- Generator: Adobe Illustrator 23.0.1, SVG Export Plug-In . SVG Version: 6.00 Build 0)  -->
<svg version="1.1" id="圖層_1" xmlns="http://www.w3.org/2000/svg" xmlns:xlink="http://www.w3.org/1999/xlink" x="0px"
     y="0px"
     viewBox="0 0 172.9 40.7" style="enable-background:new 0 0 172.9 40.7;" xml:space="preserve">
<style type="text/css">
	.st0{fill:#3E3A39;}
	.st1{fill:#ABCD03;}
	.st2{fill:none;}
</style>
    <g>
	<g>
		<g>
			<g>
				<g>
					<path class="st0" d="M2.4,36.1c-0.6,0-1.2-0.2-1.7-0.5C0.2,35.2,0,34.6,0,33.9c0-0.6,0.3-1.2,0.9-1.8l16-16.2H0.3v-4h21.1
						c0.6,0,1.2,0.2,1.7,0.5c0.5,0.4,0.7,0.9,0.7,1.6c0,0.6-0.3,1.2-0.9,1.8l-16,16.2h16.8v4L2.4,36.1L2.4,36.1z"/>
                    <path class="st0"
                          d="M27.4,36.1V11.9H49v4.2H31.6v15.7H49v4.2L27.4,36.1L27.4,36.1z M34.7,25.6V22h13.4v3.6H34.7z"/>
                    <path class="st0" d="M75,36.1l-6.1-6.7h-9v-3.7H70c1.5,0,2.7-0.4,3.4-1.2c0.8-0.8,1.2-2,1.2-3.6c0-1.6-0.4-2.8-1.2-3.5
						c-0.8-0.8-1.9-1.1-3.4-1.1H56.8v19.9h-4.2V11.9H70c1.4,0,2.6,0.2,3.7,0.6c1.1,0.4,2,1,2.8,1.8c0.8,0.8,1.3,1.7,1.7,2.8
						c0.4,1.1,0.6,2.3,0.6,3.7c0,2-0.4,3.7-1.3,5.1c-0.9,1.4-2.1,2.3-3.7,2.9l7.3,7.3L75,36.1L75,36.1z"/>
                    <path class="st0" d="M126.2,18.4v17.7h-4V14.2c0-0.8,0.2-1.4,0.6-1.8c0.4-0.5,0.9-0.7,1.6-0.7c0.3,0,0.6,0.1,0.9,0.2
						c0.3,0.1,0.6,0.4,0.9,0.7l17,16.9V11.7h4v22.1c0,0.8-0.2,1.4-0.6,1.9c-0.4,0.4-0.9,0.7-1.5,0.7c-0.7,0-1.3-0.3-1.9-0.9
						L126.2,18.4z"/>
                    <path class="st0"
                          d="M151.3,36.1V11.9h21.6v4.2h-17.4v15.7h17.4v4.2L151.3,36.1L151.3,36.1z M158.5,25.6V22h13.4v3.6H158.5z"/>
				</g>
			</g>
            <g>
				<g>
					<path class="st1" d="M100.8,38.9c-9.1,0-16.6-7.4-16.6-16.5c0-6.3,3.5-12,9.2-14.8l0.5-0.2v0.5v5.3v0.2l-0.1,0.1
						c-2.8,2.2-4.4,5.4-4.4,9c0,6.3,5.1,11.4,11.4,11.4c6.3,0,11.4-5.1,11.4-11.4c0-3.5-1.6-6.8-4.4-9l-0.1-0.1v-0.2V7.8V7.3
						l0.5,0.2c5.6,2.8,9.1,8.5,9.1,14.8C117.4,31.4,109.9,38.9,100.8,38.9L100.8,38.9z"/>
                    <polygon class="st1" points="103.7,25 103.4,25 98.3,25 97.9,25 97.9,24.6 97.9,7.7 95.6,7.7 95.1,7.7 95.3,7.2 97.9,1.2 98,1
						98.3,1 103.4,1 103.7,1 103.7,1.3 103.7,24.6 					"/>
				</g>
			</g>
		</g>
	</g>
</g>
    <rect id="_x3C_切片_x3E_" x="-55.9" y="-53.9" class="st2" width="283.5" height="141.7"/>
</svg>
